<svg id="Layer_1"
     data-name="Layer 1"
     viewBox="0 0 441.18 497.71"
     version="1.1"
     xmlns="http://www.w3.org/2000/svg">
  <defs id="defs4">
    <style id="style2">.cls-2{fill:#4bc3ce}.cls-3{fill:#fff}</style>
  </defs>
  <path d="M33.26 144.31v211a37.88 37.88 0 0 0 18.94 32.78l182.71 105.48a37.86 37.86 0 0 0 37.88 0L455.5 388.09a37.88 37.88 0 0 0 18.94-32.81v-211a37.9 37.9 0 0 0-18.94-32.78L272.79 6a37.86 37.86 0 0 0-37.88 0L52.2 111.5a37.9 37.9 0 0 0-18.94 32.81Z"
        transform="translate(-33.26 -.94)"
        style="fill:#000"
        id="path6"/>
  <rect class="cls-2"
        x="126.21"
        y="161.63"
        width="65.08"
        height="195.19"
        rx="26.59"
        transform="rotate(150.33 142.234 254.363)"
        id="rect8"
        style="fill:#b3b3b3"/>
  <rect class="cls-3"
        x="189.38"
        y="163.67"
        width="65.08"
        height="195.19"
        rx="26.59"
        transform="rotate(-151.52 205.162 265.02)"
        id="rect10"/>
  <rect class="cls-2"
        x="317.61"
        y="161"
        width="65.08"
        height="195.19"
        rx="26.59"
        transform="rotate(-151.52 333.389 262.35)"
        id="rect12"
        style="fill:#ccc"/>
  <rect class="cls-3"
        x="254.2"
        y="164.3"
        width="65.08"
        height="195.19"
        rx="26.59"
        transform="rotate(150.33 270.228 257.037)"
        id="rect14"/>
</svg>
